<?xml version="1.0" encoding="utf-8"?>
<!-- Generator: Adobe Illustrator 24.0.1, SVG Export Plug-In . SVG Version: 6.00 Build 0)  -->
<svg version="1.1" id="Layer_1" xmlns="http://www.w3.org/2000/svg" xmlns:xlink="http://www.w3.org/1999/xlink" x="0px" y="0px"
	 viewBox="0 0 134 42" style="enable-background:new 0 0 134 42;" xml:space="preserve">
<style type="text/css">
	.st0{fill:#FFFFFF;}
</style>
<g>
	<path class="st0" d="M73,33.5c0,0.7,0.6,1.2,1.2,1.2c0.3,0,0.6-0.1,0.9-0.4v0.3h0.6v-2.4h-0.6v0.3c-0.2-0.3-0.6-0.4-0.9-0.4
		C73.6,32.2,73,32.8,73,33.5z M74.3,34.2c-0.4,0-0.7-0.3-0.7-0.7c0-0.4,0.3-0.7,0.7-0.7c0.4,0,0.7,0.3,0.7,0.7
		C75.1,33.8,74.8,34.2,74.3,34.2C74.4,34.2,74.3,34.2,74.3,34.2z M70.8,32.7v1.9h0.6v-1.9h0.6v-0.5h-0.6v-1h-0.6v1h-0.3v0.5H70.8z
		 M66.3,33.5c0,0.7,0.6,1.2,1.2,1.2c0.3,0,0.6-0.1,0.9-0.4v0.3H69v-2.4h-0.6v0.3c-0.2-0.3-0.6-0.4-0.9-0.4
		C66.8,32.2,66.3,32.8,66.3,33.5z M67.6,34.2c-0.4,0-0.7-0.3-0.7-0.7c0-0.4,0.3-0.7,0.7-0.7c0.4,0,0.7,0.3,0.7,0.7
		C68.4,33.8,68.1,34.2,67.6,34.2C67.6,34.2,67.6,34.2,67.6,34.2z M62.5,34v-2.9h0.7c0.8,0,1.3,0.6,1.3,1.5c0,0.8-0.5,1.5-1.3,1.5
		H62.5z M65,32.6c0-1.1-0.8-2-1.9-2h-1.2v4.1h1.2C64.3,34.6,65,33.7,65,32.6z M57.5,32.8v1.9h0.6v-1.9h0.6v-0.5h-0.6v-1h-0.6v1h-0.3
		v0.5L57.5,32.8z M53.4,33.5c0,0.7,0.5,1.2,1.1,1.2c0,0,0,0,0.1,0c0.4,0,0.8-0.2,1-0.5l-0.4-0.3c-0.1,0.2-0.3,0.3-0.6,0.3
		c-0.5,0-0.7-0.3-0.7-0.7h1.9c0-0.8-0.5-1.3-1.2-1.3C54,32.2,53.4,32.8,53.4,33.5z M55.2,33.1H54c0.1-0.3,0.3-0.4,0.6-0.4
		C54.9,32.7,55.2,32.9,55.2,33.1z M50.5,34.2c-0.4,0-0.7-0.3-0.7-0.7c0-0.4,0.3-0.7,0.7-0.7c0.4,0,0.7,0.3,0.7,0.7
		C51.3,33.8,51,34.2,50.5,34.2C50.6,34.2,50.5,34.2,50.5,34.2z M51.3,34.3v0.3c0,0.4-0.3,0.7-0.8,0.7c-0.4,0-0.6-0.2-0.6-0.3h-0.6
		c0.1,0.4,0.5,0.8,1.3,0.8c0.8,0,1.3-0.4,1.3-1.2v-2.4h-0.6v0.3c-0.2-0.3-0.6-0.4-0.9-0.4c-0.7,0-1.2,0.6-1.2,1.3
		c0,0.7,0.6,1.2,1.2,1.2C50.8,34.7,51.1,34.5,51.3,34.3z M46.3,34.2c-0.4,0-0.7-0.3-0.7-0.7c0-0.4,0.3-0.7,0.7-0.7
		c0.4,0,0.7,0.3,0.7,0.7C47,33.8,46.7,34.2,46.3,34.2C46.3,34.2,46.3,34.2,46.3,34.2z M47.6,30.5h-0.6v2.1c-0.2-0.3-0.6-0.4-0.9-0.4
		c-0.7,0-1.2,0.6-1.2,1.3c0,0.7,0.6,1.2,1.2,1.2c0.3,0,0.6-0.1,0.9-0.4v0.3h0.6V30.5z M42,32.3h-0.5v1.5c0,0.5,0.4,1,1,1
		c0.6,0,1-0.4,1-1v-1.5h-0.6v1.5c0,0.2-0.1,0.4-0.4,0.5c0,0-0.1,0-0.1,0c-0.2,0-0.4-0.1-0.5-0.4c0,0,0-0.1,0-0.1L42,32.3z M37.9,34
		v-1.3h0.6c0.4,0,0.7,0.2,0.7,0.6c0,0.4-0.3,0.6-0.7,0.6H37.9z M37.9,32.2v-1.1h0.3c0.3,0,0.6,0.2,0.6,0.5c0,0.3-0.2,0.6-0.5,0.6
		c0,0,0,0-0.1,0H37.9z M39.3,31.6c0-0.7-0.6-1.1-1.2-1.1h-0.8v4.1h1.3c0.6,0,1.3-0.3,1.3-1.2c0-0.6-0.4-1-1-1.1
		C39.1,32.2,39.3,32,39.3,31.6z M31.7,33.4c0,0.7,0.5,1.2,1.1,1.2c0,0,0,0,0.1,0c0.4,0,0.8-0.2,1-0.5l-0.4-0.3
		c-0.1,0.2-0.3,0.3-0.6,0.3c-0.5,0-0.7-0.3-0.7-0.7h1.8c0-0.8-0.5-1.3-1.2-1.3C32.2,32.2,31.7,32.8,31.7,33.4z M33.5,33.1h-1.2
		c0.1-0.3,0.3-0.4,0.6-0.4S33.4,32.9,33.5,33.1z M28.1,34.6h0.6v-1.3c0-0.3,0.2-0.5,0.5-0.6c0,0,0,0,0,0c0.3,0,0.4,0.2,0.4,0.5v1.3
		h0.6v-1.4c0-0.5-0.2-1-0.9-1c-0.4,0-0.6,0.2-0.6,0.4v-0.3h-0.6L28.1,34.6z M26.4,31.5c0-0.2-0.1-0.4-0.3-0.4
		c-0.2,0-0.3,0.1-0.3,0.4c0,0.2,0.1,0.4,0.3,0.4C26.3,31.8,26.4,31.7,26.4,31.5z M26.4,32.3h-0.6v2.4h0.6V32.3z M24,30.5h-0.6v4.1
		H24V30.5z M19.7,34.6h0.6v-1.3c0-0.3,0.2-0.5,0.5-0.6h0c0.3,0,0.4,0.2,0.4,0.5v1.3h0.6v-1.4c0-0.5-0.3-1-0.9-1
		c-0.3,0-0.5,0.1-0.6,0.4v-0.3h-0.6L19.7,34.6z M16,34.1c-0.8,0-1.5-0.7-1.5-1.5c0-0.8,0.7-1.5,1.5-1.5c0.8,0,1.5,0.7,1.5,1.5
		C17.6,33.4,16.9,34.1,16,34.1C16.1,34.1,16.1,34.1,16,34.1z M18.1,32.6c0-1.2-0.9-2.1-2.1-2.1S14,31.4,14,32.6
		c0,1.2,0.9,2.1,2.1,2.1C17.2,34.7,18.1,33.8,18.1,32.6C18.1,32.6,18.1,32.6,18.1,32.6z M9.1,31.6l0.6,1.6H8.5L9.1,31.6z M8.9,30.5
		l-1.5,4.1H8l0.3-0.8h1.6l0.3,0.8h0.6l-1.5-4.1H8.9z M5.4,31.3l0.4-0.4c-0.3-0.2-0.6-0.4-1-0.4c-0.6,0-1.1,0.5-1.1,1.1
		c0,0.7,0.4,0.9,0.9,1.1c0.5,0.2,0.8,0.5,0.8,0.8c0,0.3-0.3,0.6-0.7,0.6c-0.3,0-0.6-0.2-0.8-0.4L3.5,34c0.2,0.3,0.6,0.6,1.3,0.6
		c0.7,0,1.2-0.4,1.2-1.2c0-0.7-0.6-1.1-1.1-1.3c-0.4-0.2-0.6-0.3-0.6-0.6c0-0.2,0.2-0.5,0.5-0.5C5,31.1,5.2,31.2,5.4,31.3z"/>
	<path class="st0" d="M75.3,21.1c0-0.2,0-0.4,0-0.6c0.1-1.8,0.4-3.6,1.1-5.3c0.6-1.5,1.2-2.9,1.8-4.3c0.2-0.4,0.5-0.8,0.8-1.2
		l0.1,0.1c-0.1,0.7-0.2,1.4-0.3,2.1c-0.5,2.2-1.3,4.4-2.1,6.5c-0.3,0.8-0.7,1.6-1.1,2.4C75.5,20.9,75.4,21,75.3,21.1z M69,20.5
		c-0.8,0.8-1.3,2-1.9,3c-0.3,0.6-0.7,1.1-1.3,1.5c-0.1,0-0.1,0.1-0.3,0.1c0-0.4,0-0.7,0-1c0.1-1.4,0.5-2.8,1.5-3.9
		c0.3-0.3,0.6-0.6,0.9-0.9c0.4-0.3,0.7-0.1,0.8,0.4C68.8,20.1,68.9,20.3,69,20.5z M133.2,19.7c-0.7-3.9-2.8-6.7-6.4-8.3
		c-1.8-0.8-3.7-1-5.6-0.8c-0.8,0.1-1.6,0.3-2.4,0.6c-0.1,0.1-0.2,0-0.3-0.1c-0.1-0.2-0.2-0.4-0.3-0.6c-1.2-2.2-2.8-4.1-4.7-5.7
		c-4-3.4-9.1-5.1-14.3-4.7c-1.1,0.1-2.2,0.2-3.3,0.5c-5.4,1.3-10,4.7-12.9,9.6c-0.1,0.2-0.2,0.4-0.3,0.6c0.1,0,0.2,0,0.3,0
		c0.8,0,1.6,0,2.4,0c0.7,0,0.8,0,1-0.7C87,8.8,87.7,7.9,89,7.5C90.6,7,92.2,6.4,93.8,6c2.6-0.7,5.3-1,8-0.8c1.1,0.1,2.2,0.2,3.4,0.4
		c1.4,0.2,2.7,0.6,4,1c1.1,0.4,2.3,0.8,3.4,1.2c0.5,0.2,0.9,0.5,1.2,1c0.5,0.7,0.8,1.6,1.1,2.4c0.4,1.5,0.8,3.1,1.2,4.6
		c0,0.1,0,0.1,0.1,0.2l0.1,0c0-0.1,0.1-0.1,0.1-0.2c0.8-0.9,1.7-1.6,2.7-2.1c1.2-0.6,2.5-0.8,3.8-0.8c2,0,3.9,0.7,5.4,2.1
		c1.9,1.7,2.9,3.8,2.8,6.4c0,1.7-0.6,3.1-1.8,4.3c-1,1-2.2,1.1-3.5,0.8c-0.8-0.2-1.3-0.9-1.6-1.7c-0.1-0.3-0.1-0.3-0.4-0.2
		c-0.5,0.2-1.1,0.3-1.6,0.2c-1.9-0.3-3.2-2.2-2.9-4.1c0.3-1.9,2.1-3.3,4.1-3c0.1,0,0.2,0,0.2,0.1l0.4,0.1c0-0.2,0.2-0.2,0.3-0.2h1.6
		c0.3,0,0.3,0,0.3,0.4c0,1.6,0,3.2,0,4.7c0,0.4,0.1,0.8,0.3,1.2c0.2,0.3,0.4,0.4,0.7,0.2c0.2-0.1,0.3-0.2,0.5-0.4
		c0.7-1,1-2.2,0.8-3.3c-0.2-1.4-0.9-2.7-1.9-3.6c-1.3-1.2-2.9-1.7-4.6-1.5c-1.4,0.1-2.6,0.8-3.6,1.9c-1.7,1.8-2.1,4.5-0.9,6.7
		c1.5,2.8,4.5,3.9,7.3,2.8c0.2-0.1,0.3-0.1,0.3,0.1c0.3,0.6,0.6,1.2,1,1.8c0.1,0.1,0,0.2-0.1,0.3c-1.7,0.7-3.5,0.9-5.2,0.5
		c-1.6-0.4-3.1-1.2-4.2-2.5c-1.2-1.4-2.1-2.9-2.4-4.7c-0.1-0.3-0.1-0.5-0.2-0.8c-0.1-0.3-0.2-0.5-0.4-0.7c-0.7-0.5-1.6-0.7-2.5-0.7
		c-1.1,0-2.2,0.3-3.1,1c-0.5,0.4-1,0.9-1.5,1.3c-0.1,0.1-0.3,0.2-0.5,0.4c-0.1-0.5-0.2-1-0.3-1.5c-0.3-1.4-0.6-2.8-0.8-4.2
		c-0.1-0.7-0.6-1.3-1.2-1.5c-2.1-1-4.1-0.9-6.2-0.1c-0.7,0.3-1.2,0.9-1.3,1.6c-0.4,1.8-0.8,3.7-1.1,5.5c0,0.1,0,0.2-0.1,0.3
		c-0.1-0.1-0.2-0.1-0.3-0.2c-0.4-0.4-0.9-0.8-1.3-1.2c-0.5-0.4-1-0.8-1.7-1.1c-1-0.4-2-0.3-2.9,0c-0.8,0.2-1.3,0.7-1.5,1.6
		c-0.2,1.1-0.7,2.2-1.3,3.1c-0.3,0.5-0.7,0.9-1.3,1.2c-0.8,0.3-1.3,0-1.6-0.7c-0.3-0.8-0.2-1.7-0.1-2.5c0.1-1,0.3-2,0.5-3
		c0-0.2,0-0.4,0-0.6c-0.1-0.3-0.3-0.4-0.5-0.2c-0.2,0.1-0.5,0.3-0.6,0.6c-0.4,1.1-0.8,2.3-1.3,3.4c-0.1,0.2-0.1,0.3-0.2,0.4
		c-0.7,0.7-1.5,1.3-2.3,1.8c-0.3,0.2-0.7,0.4-1.1,0.5c-0.8,0.2-1.4,0-1.7-1c0,0,0,0,0-0.1c-0.1-0.6-0.2-1.2-0.2-1.8
		c0-0.1,0.1-0.2,0.1-0.2c0.5-0.5,1-1,1.4-1.6c0.9-1.3,1.6-2.8,2.3-4.3c0.9-2.1,1.6-4.3,2-6.6c0.2-0.9,0.1-1.8-0.2-2.6
		c-0.2-0.4-0.5-0.7-1-0.8c-0.5-0.1-0.9,0-1.3,0.3c-1,0.6-1.8,1.5-2.4,2.5c-0.9,1.6-1.6,3.4-2.1,5.2c-0.4,1.5-0.6,3.1-0.8,4.6
		c-0.1,1.2-0.1,2.3-0.1,3.5c0,0.2,0,0.4-0.1,0.5c-0.4,0.7-0.9,1.4-1.4,2c-0.3,0.4-0.7,0.8-1.1,1.2c-0.2,0.2-0.5,0.2-0.7,0.1
		c-0.2-0.1-0.2-0.4-0.1-0.6c0.1-0.7,0.3-1.5,0.4-2.2c0.2-0.9,0.5-1.8,0.7-2.8c0.2-0.6-0.2-1.4-0.9-1.3c-0.2,0-0.2-0.1-0.2-0.2
		c0.1-1-0.6-1.8-1.5-1.9c-0.2,0-0.4,0-0.6,0c-0.7,0.1-1.2,0.5-1.7,1c-1.3,1.2-2,2.8-2.4,4.5c-0.1,0.4-0.3,0.8-0.6,1.2
		c-0.3,0.3-0.5,0.6-0.8,0.9c-0.3,0.4-0.8,0.6-1.2,0.7c-0.2,0.1-0.3,0-0.4-0.2c-0.1-0.2-0.2-0.4-0.2-0.7c-0.2-0.8-0.1-1.7,0-2.5
		c0-0.5,0.1-1.1,0.1-1.6c0-0.4-0.2-0.8-0.6-0.9c-0.4-0.2-0.7-0.1-1,0.2c-0.2,0.1-0.3,0.3-0.4,0.5c-0.3,0.4-0.5,0.8-0.8,1.2
		c-0.3,0.4-0.5,0.9-0.8,1.3l-0.1,0c0.1-0.4,0.1-0.8,0.2-1.2c0.1-0.5,0.3-1.1,0.4-1.6c0.1-0.7,0.1-1.3-0.1-2
		c-0.3-0.8-1.2-1.1-1.9-0.6c-0.4,0.3-0.7,0.7-0.9,1c-0.7,1.1-1.3,2.3-1.9,3.4l-0.2,0.3c0-0.1,0-0.2,0-0.3c0.1-0.7,0.3-1.4,0.4-2.1
		c0.1-0.5,0.1-1-0.1-1.5c-0.1-0.3-0.3-0.4-0.5-0.1c-0.2,0.3-0.4,0.6-0.6,1c-0.2,0.6-0.5,1.2-0.6,1.8c-0.4,1.2-0.7,2.5-1.1,3.7
		c-0.2,0.6-0.2,1.3-0.1,1.9c0.2,0.9,0.9,1.2,1.7,0.7c0.1-0.1,0.2-0.1,0.3-0.2c0.4-0.5,0.8-1,1.2-1.5c0.5-0.9,1-1.8,1.5-2.7
		c0-0.1,0.1-0.1,0.1-0.2c0,0.6,0,1.1,0,1.7c0,0.4,0.1,0.7,0.2,1.1C55,26.6,55.5,27,56,27c0.4,0,0.9-0.1,1.3-0.4
		c0.3-0.3,0.6-0.6,0.9-1c0.2-0.2,0.3-0.4,0.5-0.7c0,0,0.1,0,0.1,0.1c0,0.1,0,0.1,0,0.2c0.1,0.6,0.2,1.5,0.5,2.1
		c0.6,1,1.7,1.3,2.6,0.7c0.3-0.2,0.7-0.7,1-1c0.3-0.3,0.5-0.5,0.8-0.8c0.1,0.1,0.1,0.2,0.1,0.3c0.4,1.1,1.7,1.6,2.6,1
		c0.2-0.1,0.5-0.3,0.7-0.5c0.4-0.3,0.7-0.6,1.1-0.9c0,0.2,0,0.4,0.1,0.6c0.1,0.5,0.2,1,0.4,1.4c0.3,0.6,0.8,0.9,1.4,0.7
		c0.3-0.1,0.6-0.2,0.9-0.4c0.9-0.6,1.6-1.4,2.2-2.3c0.2-0.3,0.4-0.6,0.6-0.9c0.1,0.3,0.2,0.5,0.3,0.7c0.2,0.5,0.6,1,1,1.4
		c0.8,0.6,1.6,0.6,2.5,0.3c1.1-0.4,2.1-1,2.9-1.8c0.1-0.1,0.2-0.1,0.3-0.2c0,0.3,0,0.4,0,0.6c0.1,1.4,0.9,2.2,2.4,2
		c1.7-0.3,3.1-1.1,4.2-2.5c0.2-0.3,0.4-0.6,0.6-0.9c0,0.3-0.1,0.5-0.1,0.8c-0.1,0.5-0.3,1-0.4,1.5c-0.1,0.3,0.1,0.5,0.4,0.6
		c0.1,0,0.2,0,0.3,0c0.3,0,0.5,0.1,0.6,0.5c0.1,0.2,0.1,0.5,0.1,0.7c0.3,1.1,0.5,1.2,1.6,1c0.3,0,0.5-0.2,0.6-0.5
		c0.1-0.4,0.2-0.7,0.3-1.1c0.1-0.5,0.2-0.6,0.7-0.6c0.6,0,0.8-0.1,0.6-0.8c-0.2-1-0.5-2-0.7-3.1c-0.1-0.4,0-0.8,0-1.2
		c0.2,0.1,0.3,0.1,0.4,0.2c0.8,0.5,1.5,0.9,2.3,1.4c0.6,0.4,0.9,0.3,1.1-0.4c0,0,0-0.1,0-0.1c0.4-1,0.8-2.1,1.3-3.2
		c0.1-0.1,0.1-0.2,0.2-0.4c0.1,1,0.1,1.9,0.3,2.8c0.2,1.4,0.4,2.7,0.6,4.1c0.1,0.7,0.3,1.4,0.5,2.1c0.1,0.4,0.4,0.7,0.8,0.7
		c0.4,0,0.8,0,1.1,0c1.1,0,1.4-0.2,1.6-1.4c0.2-1.2,0.4-2.3,0.6-3.5c0.2-1.6,0.4-3.2,0.4-4.7c0-0.1,0-0.1,0-0.2
		c0.1,0.1,0.2,0.3,0.3,0.5c0.4,1.1,0.9,2.2,1.3,3.4c0.2,0.5,0.5,0.6,1,0.3c0.1,0,0.1-0.1,0.1-0.1c0.8-0.5,1.7-1,2.5-1.6
		c0.1,0,0.1-0.1,0.2-0.1c0,0.5,0.1,0.9,0.1,1.3c0.1,1.2,0.3,2.5,0.4,3.7c0.1,0.5,0.1,1.1,0.3,1.6c0.1,0.5,0.3,0.7,0.8,0.7
		c0.4,0,0.9,0,1.3,0c0.6-0.1,0.7-0.2,0.9-0.8c0-0.1,0-0.1,0-0.2c0.2-1.4,0.3-2.7,0.5-4.1c0-0.2,0.1-0.5,0.1-0.7
		c0.5,1.5,1.2,2.9,2.2,4.2c0.1,0.1,0.1,0.2,0.1,0.3c-0.3,1.1-0.6,2.1-1.1,3.1c-0.3,0.5-0.6,1.1-1.1,1.4c-0.4,0.2-0.7,0.4-1.1,0.5
		c-2.7,1-5.5,1.9-8.4,2.2c-1.7,0.2-3.3,0.3-5,0.1c-2-0.2-3.9-0.4-5.8-1.1c-1.4-0.5-2.8-1-4.2-1.4c-0.7-0.2-1.2-0.7-1.6-1.4
		c-0.2-0.4-0.4-0.9-0.6-1.4c-0.1-0.2-0.2-0.3-0.4-0.3c-1,0-2,0-2.9,0c-0.1,0-0.2,0-0.3,0c0.1,0.1,0.1,0.2,0.2,0.3
		c1.2,2.1,2.7,4,4.6,5.5c3.8,3.3,8.7,4.9,13.7,4.8c0.7,0,1.4-0.1,2.1-0.2c2.4-0.3,4.7-1.1,6.8-2.2c1.6-0.9,3.2-2,4.5-3.3
		c1.2-1.2,2.3-2.5,3.1-3.9c0.1-0.2,0.2-0.2,0.4-0.1c1.9,0.9,4,1.2,6.1,0.9c3.2-0.5,5.7-2.2,7.5-5C133.1,24.8,133.6,22.3,133.2,19.7z
		 M82.6,17.2c0,0.4,0.4,0.8,0.7,0.8c0.3,0,0.7-0.4,0.7-0.8c0-0.4-0.2-0.7-0.7-0.7C83,16.4,82.7,16.7,82.6,17.2
		C82.6,17.1,82.6,17.1,82.6,17.2z M87.4,17c0,1.5,1.1,2.7,2.6,2.7c0,0,0,0,0.1,0c1.5,0,2.7-1.2,2.7-2.7c0,0,0,0,0,0
		c0-1.5-1.2-2.6-2.7-2.6C88.6,14.3,87.4,15.5,87.4,17z M100.4,8c-1.7,0-3.1,1.3-3.1,3.1c0,0,0,0,0,0.1c-0.1,1.6,1.3,3.1,3.1,3.2
		c1.7,0,3.1-1.5,3.1-3.2C103.4,9.4,102,8,100.4,8z M110.9,14.2c-1.5,0-2.6,1.2-2.7,2.7c0,1.6,1.1,2.7,2.7,2.7c1.5,0,2.6-1.2,2.6-2.7
		C113.6,15.5,112.3,14.2,110.9,14.2z M123.9,21.4c0-0.7-0.6-1.3-1.3-1.3c-0.7,0-1.3,0.6-1.3,1.3c0,0.7,0.6,1.3,1.3,1.2
		C123.3,22.6,123.9,22,123.9,21.4z"/>
	<path class="st0" d="M48.6,28v-7.8h-2.3v0.5c-0.1-0.1-0.3-0.2-0.4-0.3c-0.2-0.1-0.5-0.2-0.8-0.3C44.9,20,44.6,20,44.3,20
		c-0.5,0-1,0.1-1.4,0.3c-0.4,0.2-0.8,0.5-1.1,0.9c-0.3,0.4-0.6,0.8-0.7,1.3c-0.2,0.5-0.2,1.1-0.2,1.6c0,0.6,0.1,1.2,0.2,1.7
		c0.1,0.5,0.4,1,0.7,1.3c0.3,0.4,0.7,0.7,1.1,0.9c0.5,0.2,1,0.3,1.5,0.3c0.3,0,0.5,0,0.8-0.1c0.2-0.1,0.5-0.1,0.7-0.2
		c0.2-0.1,0.4-0.2,0.6-0.4V28L48.6,28L48.6,28z M46.3,25c-0.1,0.2-0.2,0.5-0.3,0.7c-0.1,0.2-0.3,0.3-0.5,0.4
		c-0.2,0.1-0.4,0.1-0.7,0.1c-0.2,0-0.5,0-0.7-0.1c-0.2-0.1-0.4-0.2-0.5-0.4c-0.2-0.2-0.3-0.4-0.3-0.6c-0.1-0.3-0.1-0.6-0.1-0.9
		c0-0.3,0-0.6,0.1-0.9c0.1-0.2,0.2-0.5,0.3-0.7c0.1-0.2,0.3-0.3,0.5-0.4c0.2-0.1,0.5-0.1,0.7-0.1c0.2,0,0.5,0,0.7,0.1
		c0.2,0.1,0.3,0.2,0.5,0.4c0.1,0.2,0.3,0.4,0.3,0.6c0.1,0.3,0.1,0.6,0.1,0.9C46.4,24.4,46.3,24.7,46.3,25z M40.4,28.2l-2.5-4
		l2.2-3.8h-2.9l-1.8,3.3v-6.8h-2.7v11.3h2.7v-3.5l2.1,3.5L40.4,28.2z M27.3,22.5c0.7,0,1.3,0.4,1.4,1.1h-2.7
		C26.1,22.9,26.6,22.5,27.3,22.5z M30.9,25.2c0.1-0.4,0.1-0.7,0.1-1.1c0-2.3-1.6-3.9-3.7-3.9c-2.1,0-3.9,1.9-3.9,4.1
		c0,2.3,1.8,4.1,3.9,4.1c1.4,0,2.3-0.4,3.3-1.3l-1-1.5c-0.2,0.3-1,0.8-2.1,0.6c-0.6-0.1-1.1-0.5-1.3-1H30.9z M19.4,28.2h2.7V16.9
		h-2.7V28.2z M13,28.4c0.8,0,1.6-0.4,2.2-1v0.8h2.7v-7.7h-2.7v4.7c0,0.9-0.8,1.2-1.3,1.2c-0.5,0-1.1-0.3-1.1-1.2v-4.6h-2.7v5
		C10.1,27.3,11,28.4,13,28.4L13,28.4z M8.8,20.4h-3l-1.4,4.4L3,20.4H0l3.1,7.7h2.6L8.8,20.4z"/>
</g>
</svg>
