<svg id="Layer_1" data-name="Layer 1" xmlns="http://www.w3.org/2000/svg" viewBox="0 0 24 24"><defs><style>.cls-1{fill:none;}</style></defs><title>Artboard 1</title><g id="Bounding_Box" data-name="Bounding Box"><rect class="cls-1" width="24" height="24"/></g><g id="Flat"><rect x="12" y="17.65" width="1.12" height="3.35"/><path d="M19.82,9V3.12H16.47V6L12,2,.82,12.06H4.18V21h6.7V13.18c-1.12,0-3.35-1.12-3.35-4.47H8.65A3.07,3.07,0,0,0,12,12.06h1.12a2,2,0,0,1,1.52.64l2.67,2.68-.84.84-2.23-2.36V21h5.58V12.06h3.36Zm-7.26,1.9a1.68,1.68,0,1,1,1.68-1.68A1.68,1.68,0,0,1,12.56,10.94Z"/></g></svg>